<?xml version="1.0" encoding="UTF-8" standalone="no"?>
<!DOCTYPE svg PUBLIC "-//W3C//DTD SVG 1.1//EN" "http://www.w3.org/Graphics/SVG/1.1/DTD/svg11.dtd">
<svg xmlns="http://www.w3.org/2000/svg" xmlns:xlink="http://www.w3.org/1999/xlink" version="1.1" width="419.31pt" height="129.85pt" viewBox="0 0 419.31 129.85">
<g enable-background="new">
<symbol id="font_0_54">
<path d="M .47600005 .43800003 C .47600005 .56100007 .38700003 .65900006 .28100003 .65900006 C .23300001 .65900006 .18800001 .64100006 .15400002 .61 C .15400002 .63900008 .15200001 .65300008 .114 .65300008 L .041 .65300008 C .025 .65300008 0 .65300008 0 .62200006 C 0 .592 .026000003 .592 .04 .592 L .085 .592 L .085 .061000006 L .041 .061000006 C .025 .061000006 0 .061000006 0 .030000017 C 0 0 .026000003 0 .04 0 L .19900002 0 C .21300002 0 .23900002 0 .23900002 .030000017 C .23900002 .061000006 .21400002 .061000006 .19800002 .061000006 L .15400002 .061000006 L .15400002 .26700003 C .19500003 .22500003 .238 .21600002 .27 .21600002 C .37900005 .21600002 .47600005 .31100003 .47600005 .43800003 M .40700004 .43800003 C .40700004 .342 .337 .277 .26700003 .277 C .18900001 .277 .15400002 .365 .15400002 .41300006 L .15400002 .486 C .15400002 .545 .21200001 .59800007 .275 .59800007 C .34900005 .59800007 .40700004 .52500006 .40700004 .43800003 Z "/>
</symbol>
<symbol id="font_0_42">
<path d="M .377 .030000002 C .377 .061000006 .351 .061000006 .33600004 .061000006 L .231 .061000006 L .231 .39000003 C .231 .42100004 .225 .43100003 .19100002 .43100003 L .049000004 .43100003 C .034 .43100003 .008000001 .43100003 .008000001 .40100003 C .008000001 .37 .034 .37 .049000004 .37 L .162 .37 L .162 .061000006 L .041 .061000006 C .025000006 .061000006 0 .061000006 0 .030000002 C 0 0 .026 0 .041 0 L .33600004 0 C .351 0 .377 0 .377 .030000002 M .23500002 .555 C .23500002 .583 .213 .605 .185 .605 C .157 .605 .13500002 .583 .13500002 .555 C .13500002 .527 .157 .505 .185 .505 C .213 .505 .23500002 .527 .23500002 .555 Z "/>
</symbol>
<symbol id="font_0_2b">
<path d="M .393 .115 C .393 .143 .364 .143 .358 .143 C .342 .143 .33200003 .141 .32500003 .121 C .319 .108 .3 .061000006 .22600001 .061000006 C .141 .061000006 .069 .131 .069 .222 C .069 .27 .096999999 .38500003 .232 .38500003 C .253 .38500003 .292 .38500003 .292 .37600003 C .293 .34100003 .312 .32700003 .336 .32700003 C .36 .32700003 .381 .34400005 .381 .37300004 C .381 .44600005 .277 .44600005 .232 .44600005 C .059999996 .44600005 0 .31000004 0 .222 C 0 .102 .094000007 0 .22 0 C .359 0 .393 .098000008 .393 .115 Z "/>
</symbol>
<use xlink:href="#font_0_54" transform="matrix(9.9626,0,0,-9.9626,38.604555,53.2667)"/>
<use xlink:href="#font_0_42" transform="matrix(9.9626,0,0,-9.9626,44.492448,51.055006)"/>
<use xlink:href="#font_0_2b" transform="matrix(9.9626,0,0,-9.9626,49.673,51.11478)"/>
<symbol id="font_0_58">
<path d="M .12500002 .062000004 C .12500002 .09900001 .09500001 .125 .06300001 .125 C .025000006 .125 0 .094000007 0 .063 C 0 .026 .030000002 0 .06200002 0 C .10000001 0 .12500002 .031000002 .12500002 .062000004 Z "/>
</symbol>
<use xlink:href="#font_0_58" transform="matrix(9.9626,0,0,-9.9626,56.16952,51.055006)"/>
<symbol id="font_0_2f">
<path d="M .476 .037 C .476 .067 .45000003 .067 .43600003 .067 L .391 .067 L .391 .57600006 C .391 .607 .38500003 .617 .351 .617 L .278 .617 C .262 .617 .237 .617 .237 .586 C .237 .556 .263 .556 .277 .556 L .322 .556 L .322 .39800004 C .289 .42700006 .24800001 .44300003 .20500002 .44300003 C .096 .44300003 0 .34800003 0 .221 C 0 .097 .09 0 .19600001 0 C .252 0 .294 .027000003 .322 .056 C .322 .02 .322 .006 .36200003 .006 L .435 .006 C .451 .006 .476 .006 .476 .037 M .322 .2 C .322 .14400001 .277 .061000006 .20000002 .061000006 C .12900001 .061000006 .069000009 .132 .069000009 .221 C .069000009 .31700004 .13900002 .38200004 .209 .38200004 C .273 .38200004 .322 .32600004 .322 .27100004 L .322 .2 Z "/>
</symbol>
<symbol id="font_0_60">
<path d="M .455 .37500004 C .455 .395 .44300003 .437 .36 .437 C .30900003 .437 .245 .41900004 .19000001 .356 L .19000001 .39000003 C .19000001 .42100004 .184 .43100003 .15 .43100003 L .040000004 .43100003 C .025000003 .43100003 0 .43100003 0 .40100003 C 0 .37 .024 .37 .040000004 .37 L .12100001 .37 L .12100001 .061000006 L .040000004 .061000006 C .025000003 .061000006 0 .061000006 0 .031000002 C 0 0 .024 0 .040000004 0 L .301 0 C .316 0 .342 0 .342 .030000002 C .342 .061000006 .316 .061000006 .301 .061000006 L .19000001 .061000006 L .19000001 .186 C .19000001 .28 .24900002 .37600003 .37 .37600003 C .37100003 .35200004 .388 .33200003 .41300003 .33200003 C .435 .33200003 .455 .34800003 .455 .37500004 Z "/>
</symbol>
<symbol id="font_0_1c">
<path d="M .46900005 .037 C .46900005 .067 .444 .067 .42900003 .067 C .387 .067 .377 .072 .36900003 .075 L .36900003 .29100005 C .36900003 .36200003 .315 .44600005 .17100002 .44600005 C .128 .44600005 .026000005 .44600005 .026000005 .37300004 C .026000005 .34300003 .047000003 .32700003 .07100001 .32700003 C .08600001 .32700003 .11400001 .33600004 .11500001 .37300004 C .11500001 .38100005 .11600001 .38200004 .136 .38400004 C .15 .38500003 .16300002 .38500003 .17200002 .38500003 C .24800001 .38500003 .3 .35400004 .3 .28300003 C .12300001 .28000004 0 .23 0 .134 C 0 .065000008 .06300001 0 .165 0 C .202 0 .264 .007 .31100003 .038000004 C .333 .007 .381 .006 .419 .006 C .447 .006 .46900005 .006 .46900005 .037 M .3 .14 C .3 .117000009 .3 .096 .261 .078 C .22500001 .061000006 .18 .061000006 .17200002 .061000006 C .110000018 .061000006 .069000009 .095 .069000009 .134 C .069000009 .183 .15500002 .22000002 .3 .224 L .3 .14 Z "/>
</symbol>
<symbol id="font_0_72">
<path d="M .492 .40500004 C .492 .43500004 .46800003 .43500004 .45000003 .43500004 L .335 .43500004 C .317 .43500004 .293 .43500004 .293 .40500004 C .293 .374 .316 .374 .335 .374 L .384 .374 L .33400003 .076000008 L .333 .076000008 C .32900004 .102000009 .316 .148 .30400003 .189 C .286 .252 .28300003 .263 .248 .263 C .238 .263 .21900001 .263 .208 .24100001 C .20500002 .234 .165 .09600001 .161 .076000008 L .16000001 .076000008 L .108 .374 L .157 .374 C .17500001 .374 .199 .374 .199 .404 C .199 .43500004 .176 .43500004 .157 .43500004 L .042000005 .43500004 C .024000003 .43500004 0 .43500004 0 .40500004 C 0 .374 .021 .374 .051 .374 L .111 .038000004 C .11500001 .015000001 .118 0 .158 0 C .19800002 0 .201 .009000001 .21900001 .07 C .24400002 .158 .245 .172 .248 .194 L .24900002 .194 C .254 .142 .291 .025000003 .29500003 .017 C .307 0 .32500003 0 .337 0 C .374 0 .377 .016 .381 .038000004 L .441 .374 C .47100003 .374 .492 .374 .492 .40500004 Z "/>
</symbol>
<use xlink:href="#font_0_2f" transform="matrix(9.9626,0,0,-9.9626,59.76566,51.11478)" fill="#cc0000"/>
<use xlink:href="#font_0_60" transform="matrix(9.9626,0,0,-9.9626,64.95617,51.055006)" fill="#cc0000"/>
<use xlink:href="#font_0_1c" transform="matrix(9.9626,0,0,-9.9626,70.36587,51.11478)" fill="#cc0000"/>
<use xlink:href="#font_0_72" transform="matrix(9.9626,0,0,-9.9626,75.2575,51.094858)" fill="#cc0000"/>
<symbol id="font_0_55">
<path d="M .264 .028 C .264 .043 .257 .047000003 .23900002 .059 C .11500001 .143 .069000009 .27600003 .069000009 .388 C .069000009 .48800005 .10699999 .62700006 .24100003 .71800008 C .257 .72900006 .264 .73300006 .264 .748 C .264 .75600007 .259 .776 .23300001 .776 C .204 .776 0 .64400008 0 .388 C 0 .269 .046000005 .179 .081 .12900001 C .134 .056 .20900002 0 .23300001 0 C .259 0 .264 .02 .264 .028 Z "/>
</symbol>
<use xlink:href="#font_0_55" transform="matrix(9.9626,0,0,-9.9626,82.052539,51.871938)"/>
<symbol id="font_0_40">
<path d="M .41200004 .034999998 C .41200004 .06999999 .37700004 .06999999 .36500005 .06999999 L .047000007 .06999999 C .035000005 .06999999 0 .06999999 0 .034999998 C 0 0 .035000005 0 .047000007 0 L .36500005 0 C .37700004 0 .41200004 0 .41200004 .034999998 Z "/>
</symbol>
<symbol id="font_0_52">
<path d="M .337 .030000002 C .337 .061000006 .31300003 .061000006 .297 .061000006 L .20600002 .061000006 L .20600002 .58100005 C .20600002 .597 .20600002 .62200006 .17600002 .62200006 C .15700002 .62200006 .15100001 .61 .14600002 .59800007 C .10800001 .513 .05600001 .50200006 .037 .5 C .020999998 .499 0 .497 0 .469 C 0 .44400005 .018 .439 .033000009 .439 C .052 .439 .09300001 .44500003 .13700001 .483 L .13700001 .061000006 L .046000005 .061000006 C .030000002 .061000006 .0060000049 .061000006 .0060000049 .030000002 C .0060000049 0 .031000004 0 .046000005 0 L .297 0 C .31200005 0 .337 0 .337 .030000002 Z "/>
</symbol>
<symbol id="font_0_39">
<path d="M .46600003 .19900002 C .46600003 .23 .442 .23 .426 .23 L .348 .23 L .348 .582 C .348 .615 .341 .623 .307 .623 L .279 .623 C .255 .623 .25 .62200006 .237 .60200008 L .0090000019 .24400002 C 0 .231 0 .22900002 0 .209 C 0 .17600002 .0090000019 .16900002 .040000008 .16900002 L .292 .16900002 L .292 .061000006 L .23 .061000006 C .21400002 .061000006 .19000001 .061000006 .19000001 .030000002 C .19000001 0 .21500002 0 .23 0 L .41 0 C .425 0 .45000003 0 .45000003 .030000002 C .45000003 .061000006 .426 .061000006 .41 .061000006 L .348 .061000006 L .348 .16900002 L .426 .16900002 C .441 .16900002 .46600003 .16900002 .46600003 .19900002 M .292 .23 L .07000001 .23 L .292 .57900008 L .292 .23 Z "/>
</symbol>
<symbol id="font_0_2d">
<path d="M .16600001 .16400002 C .16600001 .22500003 .127 .264 .083000008 .264 C .042999999 .264 .019999996 .23400003 .019999996 .20200002 C .019999996 .16400002 .04900001 .13900002 .08200002 .13900002 C .088 .13900002 .095 .14000002 .102 .14200002 C .08700001 .08000001 .040000008 .06400001 .027999998 .06000001 C .018000007 .05700001 0 .05200001 0 .032000007 C 0 .017000005 .015000001 0 .032000007 0 C .06400001 0 .16600001 .054000014 .16600001 .16400002 Z "/>
</symbol>
<symbol id="font_0_56">
<path d="M .26400004 .388 C .26400004 .507 .21800003 .59700009 .18300003 .647 C .13 .72 .055 .776 .030999996 .776 C .0059999974 .776 0 .75600007 0 .748 C 0 .73300006 .011 .7260001 .015999996 .72300007 C .18 .614 .19500003 .453 .19500003 .388 C .19500003 .28800003 .15799999 .149 .023000002 .058000003 C .007999994 .048 0 .043 0 .028 C 0 .02 .0059999974 0 .030999996 0 C .059999996 0 .26400004 .132 .26400004 .388 Z "/>
</symbol>
<use xlink:href="#font_0_55" transform="matrix(9.9626,0,0,-9.9626,87.28253,51.871938)" fill="#000099"/>
<use xlink:href="#font_0_40" transform="matrix(9.9626,0,0,-9.9626,91.34727,48.35514)" fill="#000099"/>
<use xlink:href="#font_0_52" transform="matrix(9.9626,0,0,-9.9626,97.0658,51.055006)" fill="#000099"/>
<use xlink:href="#font_0_58" transform="matrix(9.9626,0,0,-9.9626,103.242618,51.055006)" fill="#000099"/>
<use xlink:href="#font_0_39" transform="matrix(9.9626,0,0,-9.9626,106.76938,51.055006)" fill="#000099"/>
<use xlink:href="#font_0_2d" transform="matrix(9.9626,0,0,-9.9626,113.50409,52.439805)" fill="#000099"/>
<use xlink:href="#font_0_40" transform="matrix(9.9626,0,0,-9.9626,122.72946,48.35514)" fill="#000099"/>
<use xlink:href="#font_0_52" transform="matrix(9.9626,0,0,-9.9626,128.44799,51.055006)" fill="#000099"/>
<use xlink:href="#font_0_58" transform="matrix(9.9626,0,0,-9.9626,134.62482,51.055006)" fill="#000099"/>
<use xlink:href="#font_0_39" transform="matrix(9.9626,0,0,-9.9626,138.15157,51.055006)" fill="#000099"/>
<use xlink:href="#font_0_56" transform="matrix(9.9626,0,0,-9.9626,143.96973,51.871938)" fill="#000099"/>
<use xlink:href="#font_0_2d" transform="matrix(9.9626,0,0,-9.9626,150.11827,52.439805)"/>
<symbol id="font_0_3b">
<path d="M .48 .61700007 C .48 .64000007 .461 .67100009 .407 .67100009 C .396 .67100009 .347 .67 .301 .63600006 C .285 .647 .25 .666 .20400001 .666 C .110000018 .666 .039000006 .591 .039000006 .50600007 C .039000006 .46300004 .056 .43 .071 .411 C .060000004 .39500005 .051000008 .37300004 .051000008 .34300003 C .051000008 .30800004 .065000008 .28300003 .07400001 .27100004 C 0 .22600001 0 .15800002 0 .14700002 C 0 .061000006 .105000007 0 .23300003 0 C .361 0 .46600003 .062000008 .46600003 .14700002 C .46600003 .18400002 .448 .23400001 .397 .261 C .384 .268 .342 .29000003 .252 .29000003 L .18200001 .29000003 C .17400001 .29000003 .16100002 .29000003 .15300001 .29200004 C .13800001 .29200004 .13200002 .29200004 .120000008 .30600003 C .10900001 .32000003 .10800001 .342 .10800001 .342 C .10800001 .34600003 .110000018 .36 .11400001 .37 C .11700001 .36800004 .15500002 .34500004 .20400001 .34500004 C .296 .34500004 .36900003 .41700004 .36900003 .50600007 C .36900003 .536 .36 .56500008 .343 .59300008 C .364 .605 .388 .609 .401 .61 C .407 .583 .43 .57600006 .44 .57600006 C .45700003 .57600006 .48 .58800008 .48 .61700007 M .3 .50600007 C .3 .44900004 .256 .40500004 .20400001 .40500004 C .15 .40500004 .10800001 .45200003 .10800001 .50500008 C .10800001 .56200006 .15200001 .606 .20400001 .606 C .258 .606 .3 .559 .3 .50600007 M .408 .14700002 C .408 .103000018 .333 .060000004 .23300003 .060000004 C .133 .060000004 .058000007 .103000018 .058000007 .14700002 C .058000007 .16500002 .067 .19700001 .09900001 .21700002 C .12400001 .23300001 .133 .23300001 .20600002 .23300001 C .295 .23300001 .408 .23300001 .408 .14700002 Z "/>
</symbol>
<use xlink:href="#font_0_3b" transform="matrix(9.9626,0,0,-9.9626,159.0749,53.33644)" fill="#739900"/>
<use xlink:href="#font_0_60" transform="matrix(9.9626,0,0,-9.9626,164.33518,51.055006)" fill="#739900"/>
<use xlink:href="#font_0_42" transform="matrix(9.9626,0,0,-9.9626,170.02382,51.055006)" fill="#739900"/>
<use xlink:href="#font_0_2f" transform="matrix(9.9626,0,0,-9.9626,174.83576,51.11478)" fill="#739900"/>
<use xlink:href="#font_0_55" transform="matrix(9.9626,0,0,-9.9626,181.43152,51.871938)"/>
<use xlink:href="#font_0_55" transform="matrix(9.9626,0,0,-9.9626,186.66152,51.871938)" fill="#000099"/>
<use xlink:href="#font_0_40" transform="matrix(9.9626,0,0,-9.9626,190.72628,48.35514)" fill="#000099"/>
<use xlink:href="#font_0_52" transform="matrix(9.9626,0,0,-9.9626,196.4448,51.055006)" fill="#000099"/>
<use xlink:href="#font_0_58" transform="matrix(9.9626,0,0,-9.9626,202.62162,51.055006)" fill="#000099"/>
<use xlink:href="#font_0_39" transform="matrix(9.9626,0,0,-9.9626,206.14836,51.055006)" fill="#000099"/>
<use xlink:href="#font_0_2d" transform="matrix(9.9626,0,0,-9.9626,212.8831,52.439805)" fill="#000099"/>
<use xlink:href="#font_0_40" transform="matrix(9.9626,0,0,-9.9626,222.10846,48.35514)" fill="#000099"/>
<use xlink:href="#font_0_52" transform="matrix(9.9626,0,0,-9.9626,227.82698,51.055006)" fill="#000099"/>
<use xlink:href="#font_0_58" transform="matrix(9.9626,0,0,-9.9626,234.00382,51.055006)" fill="#000099"/>
<use xlink:href="#font_0_39" transform="matrix(9.9626,0,0,-9.9626,237.53057,51.055006)" fill="#000099"/>
<use xlink:href="#font_0_56" transform="matrix(9.9626,0,0,-9.9626,243.34873,51.871938)" fill="#000099"/>
<use xlink:href="#font_0_2d" transform="matrix(9.9626,0,0,-9.9626,249.49628,52.439805)"/>
<symbol id="font_0_62">
<path d="M .38700003 .131 C .38700003 .23500002 .25800003 .256 .22600001 .26100005 L .15799999 .27300004 C .12900001 .27700005 .060999998 .28900004 .060999998 .32800005 C .060999998 .35400004 .093 .38500003 .18800003 .38500003 C .27100004 .38500003 .28500004 .35500003 .28800003 .32900004 C .28900004 .31200005 .291 .29500003 .32200004 .29500003 C .35700003 .29500003 .35700003 .316 .35700003 .33600004 L .35700003 .40500004 C .35700003 .42100004 .35700003 .44600005 .32700003 .44600005 C .30300004 .44600005 .29900003 .43200005 .29700003 .42500005 C .25300003 .44600005 .20900002 .44600005 .19000003 .44600005 C .023000002 .44600005 0 .36400003 0 .32800005 C 0 .236 .105 .21900001 .19700003 .20500002 C .24600002 .19700001 .32600004 .184 .32600004 .131 C .32600004 .094000007 .28900004 .061000006 .19800002 .061000006 C .151 .061000006 .095000009 .072 .07 .15 C .065000008 .168 .060999998 .179 .035000005 .179 C 0 .179 0 .158 0 .138 L 0 .041 C 0 .025000003 0 0 .030000002 0 C .039000006 0 .055 .0009999997 .06700001 .038000004 C .116000007 .0019999999 .169 0 .19700003 0 C .35500003 0 .38700003 .083000008 .38700003 .131 Z "/>
</symbol>
<symbol id="font_0_69">
<path d="M .42400003 .132 C .42400003 .15 .42400003 .171 .38900004 .171 C .356 .171 .35500003 .15 .35500003 .133 C .354 .071 .29700003 .061000006 .27400003 .061000006 C .19700001 .061000006 .19700001 .113000009 .19700001 .138 L .19700001 .37600003 L .361 .37600003 C .37600003 .37600003 .40100003 .37600003 .40100003 .40600003 C .40100003 .43700005 .377 .43700005 .361 .43700005 L .19700001 .43700005 L .19700001 .519 C .19700001 .538 .19700001 .56 .163 .56 C .128 .56 .128 .53900006 .128 .519 L .128 .43700005 L .041 .43700005 C .025 .43700005 0 .43700005 0 .40600003 C 0 .37600003 .025 .37600003 .040000008 .37600003 L .128 .37600003 L .128 .132 C .128 .036000004 .19600001 0 .269 0 C .34300003 0 .42400003 .043 .42400003 .132 Z "/>
</symbol>
<symbol id="font_0_32">
<path d="M .409 .115 C .409 .143 .38000003 .143 .374 .143 C .356 .143 .34800003 .14 .34100003 .121 C .319 .07 .26500003 .061000006 .23700002 .061000006 C .162 .061000006 .087 .111 .070999998 .19700001 L .36900003 .19700001 C .39000003 .19700001 .409 .19700001 .409 .23400001 C .409 .34800003 .345 .44600005 .215 .44600005 C .096 .44600005 0 .34600003 0 .223 C 0 .101 .100999999 0 .23000002 0 C .36200003 0 .409 .09 .409 .115 M .338 .25700004 L .072 .25700004 C .085999999 .33 .145 .38500003 .215 .38500003 C .26700003 .38500003 .329 .36 .338 .25700004 Z "/>
</symbol>
<symbol id="font_0_34">
<path d="M .448 .18700002 C .448 .22200002 .411 .22200002 .397 .22200002 L .051 .22200002 C .037 .22200002 0 .22200002 0 .18700002 C 0 .152 .033 .152 .045 .152 L .403 .152 C .41500003 .152 .448 .152 .448 .18700002 M .448 .034999998 C .448 .07000001 .41500003 .07000001 .403 .07000001 L .045 .07000001 C .033 .07000001 0 .07000001 0 .034999998 C 0 0 .037 0 .051 0 L .397 0 C .411 0 .448 0 .448 .034999998 Z "/>
</symbol>
<symbol id="font_0_79">
<path d="M .42400003 .316 C .42400003 .50200006 .322 .633 .21200003 .633 C .10000001 .633 0 .49900005 0 .31700004 C 0 .13100001 .10200001 0 .21200003 0 C .324 0 .42400003 .134 .42400003 .316 M .35500003 .32700003 C .35500003 .17900002 .29 .061 .21200003 .061 C .13400002 .061 .069000009 .17900002 .069000009 .32700003 C .069000009 .47300003 .13800001 .572 .21200003 .572 C .285 .572 .35500003 .47400005 .35500003 .32700003 Z "/>
</symbol>
<symbol id="font_0_38">
<path d="M .42000003 .20100002 C .42000003 .30200003 .343 .40000005 .22500001 .40000005 C .19000001 .40000005 .14600002 .39300005 .105000007 .37100003 L .105000007 .561 L .34500004 .561 C .36 .561 .385 .561 .385 .591 C .385 .622 .361 .622 .34500004 .622 L .076000008 .622 C .043000007 .622 .036000007 .61300006 .036000007 .58100005 L .036000007 .31500004 C .036000007 .29700003 .036000007 .27400003 .068 .27400003 C .08600001 .27400003 .09 .279 .098000008 .28900004 C .125 .321 .16600001 .33900003 .22400002 .33900003 C .306 .33900003 .351 .26600004 .351 .20100002 C .351 .12100001 .28000004 .061 .19600001 .061 C .16800002 .061 .104 .069000009 .076000008 .124000009 C .081 .12900001 .089 .136 .089 .15600002 C .089 .18500002 .06600001 .20100002 .045 .20100002 C .030000002 .20100002 0 .19200002 0 .15300001 C 0 .07000001 .08400001 0 .19600001 0 C .32100005 0 .42000003 .09 .42000003 .20100002 Z "/>
</symbol>
<use xlink:href="#font_0_62" transform="matrix(9.9626,0,0,-9.9626,258.88133,51.11478)" fill="#800080"/>
<use xlink:href="#font_0_69" transform="matrix(9.9626,0,0,-9.9626,263.64344,51.11478)" fill="#800080"/>
<use xlink:href="#font_0_32" transform="matrix(9.9626,0,0,-9.9626,269.17268,51.11478)" fill="#800080"/>
<use xlink:href="#font_0_54" transform="matrix(9.9626,0,0,-9.9626,273.97465,53.2667)" fill="#800080"/>
<use xlink:href="#font_0_34" transform="matrix(9.9626,0,0,-9.9626,279.46406,49.112298)" fill="#800080"/>
<use xlink:href="#font_0_79" transform="matrix(9.9626,0,0,-9.9626,284.81398,51.164594)" fill="#800080"/>
<use xlink:href="#font_0_58" transform="matrix(9.9626,0,0,-9.9626,291.53874,51.055006)" fill="#800080"/>
<use xlink:href="#font_0_38" transform="matrix(9.9626,0,0,-9.9626,295.29463,51.164594)" fill="#800080"/>
<use xlink:href="#font_0_56" transform="matrix(9.9626,0,0,-9.9626,300.8847,51.871938)"/>
<use xlink:href="#font_0_2d" transform="matrix(9.9626,0,0,-9.9626,307.03129,52.439805)"/>
<symbol id="font_0_3f">
<path d="M .5 .030000002 C .5 .061000006 .47500003 .061000006 .45900003 .061000006 L .41500003 .061000006 L .41500003 .293 C .41500003 .39400003 .36400003 .437 .28500004 .437 C .21800001 .437 .17300001 .40300004 .15400002 .384 L .15400002 .57000008 C .15400002 .601 .14800002 .611 .114 .611 L .041 .611 C .025 .611 0 .611 0 .58000007 C 0 .55 .026000003 .55 .04 .55 L .085 .55 L .085 .061000006 L .041 .061000006 C .025 .061000006 0 .061000006 0 .030000002 C 0 0 .026000003 0 .04 0 L .19900002 0 C .21300002 0 .23900002 0 .23900002 .030000002 C .23900002 .061000006 .21400002 .061000006 .19800002 .061000006 L .15400002 .061000006 L .15400002 .238 C .15400002 .33800004 .22800002 .37600003 .279 .37600003 C .33200003 .37600003 .34600003 .34800003 .34600003 .28800003 L .34600003 .061000006 L .307 .061000006 C .291 .061000006 .26600004 .061000006 .26600004 .030000002 C .26600004 0 .293 0 .307 0 L .46000005 0 C .47400005 0 .5 0 .5 .030000002 Z "/>
</symbol>
<symbol id="font_0_48">
<path d="M .409 .030000002 C .409 .061000006 .38500003 .061000006 .36900003 .061000006 L .23900002 .061000006 L .23900002 .57000008 C .23900002 .601 .23300001 .611 .199 .611 L .041000006 .611 C .025000003 .611 0 .611 0 .58000007 C 0 .55 .026000005 .55 .040000004 .55 L .17000002 .55 L .17000002 .061000006 L .041000006 .061000006 C .025000003 .061000006 0 .061000006 0 .030000002 C 0 0 .026000005 0 .040000004 0 L .36900003 0 C .38400004 0 .409 0 .409 .030000002 Z "/>
</symbol>
<symbol id="font_0_6e">
<path d="M .41200004 .03500001 C .41200004 .07000001 .37700004 .07000001 .36500005 .07000001 L .047000007 .07000001 C .035000005 .07000001 0 .07000001 0 .03500001 C 0 0 .035000005 0 .047000007 0 L .36500005 0 C .37700004 0 .41200004 0 .41200004 .03500001 Z "/>
</symbol>
<symbol id="font_0_4d">
<path d="M .5 .030000002 C .5 .061000006 .47500003 .061000006 .45900003 .061000006 L .41500003 .061000006 L .41500003 .293 C .41500003 .39400003 .36400003 .437 .28500004 .437 C .21800001 .437 .17300001 .40300004 .15400002 .384 C .15400002 .416 .15400002 .43100003 .114 .43100003 L .041 .43100003 C .025 .43100003 0 .43100003 0 .4 C 0 .37 .026000003 .37 .04 .37 L .085 .37 L .085 .061000006 L .041 .061000006 C .025 .061000006 0 .061000006 0 .030000002 C 0 0 .026000003 0 .04 0 L .19900002 0 C .21300002 0 .23900002 0 .23900002 .030000002 C .23900002 .061000006 .21400002 .061000006 .19800002 .061000006 L .15400002 .061000006 L .15400002 .238 C .15400002 .33800004 .22800002 .37600003 .279 .37600003 C .33200003 .37600003 .34600003 .34800003 .34600003 .28800003 L .34600003 .061000006 L .307 .061000006 C .291 .061000006 .26600004 .061000006 .26600004 .030000002 C .26600004 0 .293 0 .307 0 L .46000005 0 C .47400005 0 .5 0 .5 .030000002 Z "/>
</symbol>
<symbol id="font_0_68">
<path d="M .47200004 .497 L .47200004 .57000008 C .47200004 .601 .46600003 .611 .43200005 .611 L .041 .611 C .008000001 .611 0 .60300007 0 .57000008 L 0 .497 C 0 .47800002 0 .45600004 .034 .45600004 C .069000009 .45600004 .069000009 .47700004 .069000009 .497 L .069000009 .55 L .20200002 .55 L .20200002 .061000006 L .15 .061000006 C .13500002 .061000006 .11000001 .061000006 .11000001 .031000002 C .11000001 0 .134 0 .15 0 L .323 0 C .33800004 0 .36300005 0 .36300005 .030000002 C .36300005 .061000006 .33900003 .061000006 .323 .061000006 L .27100004 .061000006 L .27100004 .55 L .40300004 .55 L .40300004 .497 C .40300004 .47800002 .40300004 .45600004 .43700005 .45600004 C .47200004 .45600004 .47200004 .47700004 .47200004 .497 Z "/>
</symbol>
<symbol id="font_0_6d">
<path d="M .5 .037 C .5 .067 .47400005 .067 .46000005 .067 L .41500003 .067 L .41500003 .39600004 C .41500003 .42700006 .40900005 .43700005 .37500004 .43700005 L .30200003 .43700005 C .286 .43700005 .261 .43700005 .261 .40600003 C .261 .37600003 .28700004 .37600003 .30100004 .37600003 L .34600003 .37600003 L .34600003 .163 C .34600003 .073 .26500003 .061000006 .23300001 .061000006 C .15400002 .061000006 .15400002 .094000007 .15400002 .126 L .15400002 .39600004 C .15400002 .42700006 .14800002 .43700005 .114 .43700005 L .041 .43700005 C .025 .43700005 0 .43700005 0 .40600003 C 0 .37600003 .026000003 .37600003 .04 .37600003 L .085 .37600003 L .085 .120000008 C .085 .024 .15400002 0 .22700002 0 C .268 0 .30900003 .01 .34600003 .038000004 C .34700004 .006 .36800004 .006 .38600005 .006 L .45900003 .006 C .47500003 .006 .5 .006 .5 .037 Z "/>
</symbol>
<use xlink:href="#font_0_3f" transform="matrix(9.9626,0,0,-9.9626,315.81855,51.055006)" fill="#800080"/>
<use xlink:href="#font_0_32" transform="matrix(9.9626,0,0,-9.9626,321.47734,51.11478)" fill="#800080"/>
<use xlink:href="#font_0_48" transform="matrix(9.9626,0,0,-9.9626,326.73756,51.055006)" fill="#800080"/>
<use xlink:href="#font_0_54" transform="matrix(9.9626,0,0,-9.9626,331.50965,53.2667)" fill="#800080"/>
<use xlink:href="#font_0_6e" transform="matrix(9.9626,0,0,-9.9626,337.17839,52.718759)" fill="#800080"/>
<use xlink:href="#font_0_48" transform="matrix(9.9626,0,0,-9.9626,342.42866,51.055006)" fill="#800080"/>
<use xlink:href="#font_0_42" transform="matrix(9.9626,0,0,-9.9626,347.85829,51.055006)" fill="#800080"/>
<use xlink:href="#font_0_4d" transform="matrix(9.9626,0,0,-9.9626,352.43113,51.055006)" fill="#800080"/>
<use xlink:href="#font_0_32" transform="matrix(9.9626,0,0,-9.9626,358.08988,51.11478)" fill="#800080"/>
<use xlink:href="#font_0_62" transform="matrix(9.9626,0,0,-9.9626,363.48963,51.11478)" fill="#800080"/>
<use xlink:href="#font_0_34" transform="matrix(9.9626,0,0,-9.9626,368.38124,49.112298)" fill="#800080"/>
<use xlink:href="#font_0_68" transform="matrix(9.9626,0,0,-9.9626,373.49208,51.055006)" fill="#800080"/>
<use xlink:href="#font_0_60" transform="matrix(9.9626,0,0,-9.9626,378.78224,51.055006)" fill="#800080"/>
<use xlink:href="#font_0_6d" transform="matrix(9.9626,0,0,-9.9626,383.8133,51.11478)" fill="#800080"/>
<use xlink:href="#font_0_32" transform="matrix(9.9626,0,0,-9.9626,389.47209,51.11478)" fill="#800080"/>
<use xlink:href="#font_0_56" transform="matrix(9.9626,0,0,-9.9626,395.0327,51.871938)"/>
<path transform="matrix(1,0,0,-1,46.331,49.147008)" stroke-width=".3985" stroke-linecap="butt" stroke-miterlimit="10" stroke-linejoin="miter" fill="none" stroke="#000000" d="M 0 6.52065 L 0 19.01399 "/>
<path transform="matrix(0,1,1,0,46.331,42.626359)" stroke-width=".31879" stroke-linecap="round" stroke-linejoin="round" fill="none" stroke="#000000" d="M -1.19551 1.59401 C -1.09587 .99626 0 .09961 .29886 0 C 0 -.09961 -1.09587 -.99626 -1.19551 -1.59401 "/>
<symbol id="font_1_54">
<path d="M .411 .417 C .411 .53700008 .34800003 .64900007 .25100003 .64900007 C .22300002 .64900007 .149 .64400008 .08 .59000006 L .08 .638 L 0 .638 L 0 0 L .083000008 0 L .083000008 .24000001 C .120000008 .20500002 .17000002 .183 .222 .183 C .323 .183 .411 .282 .411 .417 M .328 .416 C .328 .32 .25800003 .24800001 .18 .24800001 C .148 .24800001 .112 .261 .083000008 .31 L .083000008 .526 C .096 .544 .133 .58100005 .19 .58100005 C .26500003 .58100005 .328 .51 .328 .416 Z "/>
</symbol>
<symbol id="font_1_42">
<path d="M .087 0 L .087 .44400005 L .0069999995 .44400005 L .0069999995 0 L .087 0 M .096 .563 L .096 .65900006 L 0 .65900006 L 0 .563 L .096 .563 Z "/>
</symbol>
<symbol id="font_1_2b">
<path d="M .391 .048 L .38500003 .119 C .337 .086 .284 .068 .22400002 .068 C .13900002 .068 .083000008 .13900002 .083000008 .23400001 C .083000008 .31100003 .12100001 .404 .228 .404 C .291 .404 .323 .39200003 .373 .358 L .386 .42800004 C .33 .46000005 .299 .47200004 .22700002 .47200004 C .08500001 .47200004 0 .35200004 0 .23300003 C 0 .109000008 .09300001 0 .223 0 C .293 0 .34600003 .021000002 .391 .048 Z "/>
</symbol>
<symbol id="font_1_69">
<path d="M .323 .037 L .30600003 .1 C .28000004 .080000009 .245 .068 .21400002 .068 C .17500001 .068 .162 .10300001 .162 .15500002 L .162 .39300005 L .30600003 .39300005 L .30600003 .45500005 L .162 .45500005 L .162 .582 L .08800001 .582 L .08800001 .45500005 L 0 .45500005 L 0 .39300005 L .085 .39300005 L .085 .13700001 C .085 .078 .098000008 0 .171 0 C .215 0 .26700003 .009000001 .323 .037 Z "/>
</symbol>
<symbol id="font_1_6d">
<path d="M .36800004 .011000001 L .36800004 .45500005 L .28500004 .45500005 L .28500004 .16600001 C .28500004 .086 .222 .059 .16200002 .059 C .09 .059 .083000008 .082 .083000008 .12500002 L .083000008 .45500005 L 0 .45500005 L 0 .120000008 C 0 .035 .034 0 .105000007 0 C .16300002 0 .24100003 .017 .28800003 .059 L .28800003 .011000001 L .36800004 .011000001 Z "/>
</symbol>
<symbol id="font_1_60">
<path d="M .25300003 .38300003 L .25300003 .455 C .181 .45400004 .11500001 .418 .074 .35900004 L .074 .45000003 L 0 .45000003 L 0 0 L .08 0 L .08 .21300002 C .08 .31800003 .162 .38200004 .25300003 .38300003 Z "/>
</symbol>
<symbol id="font_1_32">
<path d="M .39200003 .23000002 C .39200003 .261 .39100004 .337 .35200004 .397 C .31000004 .46000005 .24600002 .47200004 .20800002 .47200004 C .09200001 .47200004 0 .365 0 .23700002 C 0 .105000007 .098000008 0 .22300002 0 C .27100004 0 .32900004 .012000001 .38700003 .049000004 L .381 .11800001 C .31800003 .07300001 .259 .065000008 .224 .065000008 C .14100002 .065000008 .07700001 .13800001 .074 .23000002 L .39200003 .23000002 M .33200003 .28900004 L .08 .28900004 C .096000019 .35300002 .14500001 .40700004 .20800002 .40700004 C .245 .40700004 .31300003 .39000003 .33200003 .28900004 Z "/>
</symbol>
<symbol id="font_1_51">
<path d="M .453 .23100002 C .453 .36200003 .35300002 .47200004 .22600001 .47200004 C .102 .47200004 0 .36400003 0 .23100002 C 0 .09900001 .105000007 0 .22600001 0 C .35000003 0 .453 .101 .453 .23100002 M .37 .24100001 C .37 .12500002 .3 .068 .227 .068 C .15 .068 .083000008 .128 .083000008 .24100001 C .083000008 .358 .158 .40700004 .22600001 .40700004 C .298 .40700004 .37 .35600005 .37 .24100001 Z "/>
</symbol>
<symbol id="font_1_23">
<path d="M .411 .23400001 C .411 .35500003 .34500004 .46600003 .24700001 .46600003 C .22 .46600003 .148 .46100004 .08 .40800003 L .08 .705 L 0 .705 L 0 .011000001 L .083000008 .011000001 L .083000008 .058000003 C .096 .044 .147 0 .22100002 0 C .32500003 0 .411 .101 .411 .23400001 M .328 .23400001 C .328 .105000007 .24200002 .065000008 .181 .065000008 C .117 .065000008 .088 .11800001 .083000008 .127 L .083000008 .34500004 C .098000008 .36600004 .134 .40100003 .19100002 .40100003 C .25100003 .40100003 .328 .35900004 .328 .23400001 Z "/>
</symbol>
<symbol id="font_1_44">
<path d="M .254 .14600002 L .254 .64900007 L .17400001 .64900007 L .17400001 .13700001 C .17400001 .07100001 .11400001 .068 .098000008 .068 C .07 .068 .045 .07900001 .022999999 .09900001 L 0 .03400001 C .05 .0059999974 .098000008 0 .124000009 0 C .192 0 .254 .054000006 .254 .14600002 M .254 .768 L .254 .8640001 L .158 .8640001 L .158 .768 L .254 .768 Z "/>
</symbol>
<use xlink:href="#font_1_54" transform="matrix(8.9664,0,0,-8.9664,20.669213,27.887488)"/>
<use xlink:href="#font_1_42" transform="matrix(8.9664,0,0,-8.9664,25.358639,26.148007)"/>
<use xlink:href="#font_1_2b" transform="matrix(8.9664,0,0,-8.9664,27.205718,26.246638)"/>
<use xlink:href="#font_1_69" transform="matrix(8.9664,0,0,-8.9664,31.150935,26.246638)"/>
<use xlink:href="#font_1_6d" transform="matrix(8.9664,0,0,-8.9664,35.033388,26.246638)"/>
<use xlink:href="#font_1_60" transform="matrix(8.9664,0,0,-8.9664,39.812479,26.148007)"/>
<use xlink:href="#font_1_32" transform="matrix(8.9664,0,0,-8.9664,42.529294,26.246638)"/>
<use xlink:href="#font_1_51" transform="matrix(8.9664,0,0,-8.9664,49.657587,26.246638)"/>
<use xlink:href="#font_1_23" transform="matrix(8.9664,0,0,-8.9664,54.741537,26.246638)"/>
<use xlink:href="#font_1_44" transform="matrix(8.9664,0,0,-8.9664,58.193597,27.986119)"/>
<use xlink:href="#font_1_32" transform="matrix(8.9664,0,0,-8.9664,61.5291,26.246638)"/>
<use xlink:href="#font_1_2b" transform="matrix(8.9664,0,0,-8.9664,65.63571,26.246638)"/>
<use xlink:href="#font_1_69" transform="matrix(8.9664,0,0,-8.9664,69.58093,26.246638)"/>
<path transform="matrix(1,0,0,-1,46.331,49.147008)" stroke-width=".3985" stroke-linecap="butt" stroke-miterlimit="10" stroke-linejoin="miter" fill="none" stroke="#000000" d="M 23.53703 -6.3512 L 23.53703 -18.84454 "/>
<path transform="matrix(0,-1,-1,-0,69.86803,55.498208)" stroke-width=".31879" stroke-linecap="round" stroke-linejoin="round" fill="none" stroke="#000000" d="M -1.19551 1.59401 C -1.09587 .99626 0 .09961 .29886 0 C 0 -.09961 -1.09587 -.99626 -1.19551 -1.59401 "/>
<symbol id="font_1_1c">
<path d="M .36800004 .011000001 L .36800004 .3 C .36800004 .39900003 .29500003 .47200004 .196 .47200004 C .131 .47200004 .083000008 .45500005 .035 .42800004 L .041000006 .35700003 C .091000009 .39400003 .14 .40900005 .19500001 .40900005 C .25100003 .40900005 .28500004 .36400003 .28500004 .29900003 L .28500004 .257 C .113000009 .25300003 0 .20800002 0 .127 C 0 .080000009 .031 0 .118 0 C .138 0 .22500001 .0020000004 .28800003 .049000004 L .28800003 .011000001 L .36800004 .011000001 M .28500004 .15100001 C .28500004 .13000001 .28500004 .105000007 .249 .08400001 C .22400002 .069000009 .191 .065000008 .171 .065000008 C .120000008 .065000008 .07700001 .089 .07700001 .12900001 C .07700001 .20000002 .272 .20300001 .28500004 .20300001 L .28500004 .15100001 Z "/>
</symbol>
<symbol id="font_1_3f">
<path d="M .36800004 0 L .36800004 .29700003 C .36800004 .37100003 .34800003 .455 .22700003 .455 C .17000002 .455 .11600001 .42800004 .08000001 .38300003 L .08000001 .694 L 0 .694 L 0 0 L .083000008 0 L .083000008 .24400002 C .083000008 .31 .10900001 .39000003 .185 .39000003 C .28500004 .39000003 .28500004 .319 .28500004 .29000003 L .28500004 0 L .36800004 0 Z "/>
</symbol>
<symbol id="font_1_4d">
<path d="M .36800004 0 L .36800004 .29700003 C .36800004 .37100003 .34800003 .455 .22700003 .455 C .14800002 .455 .10000001 .409 .07700001 .379 L .07700001 .45000003 L 0 .45000003 L 0 0 L .083000008 0 L .083000008 .24400002 C .083000008 .31 .10900001 .39000003 .185 .39000003 C .28500004 .39000003 .28500004 .319 .28500004 .29000003 L .28500004 0 L .36800004 0 Z "/>
</symbol>
<use xlink:href="#font_1_54" transform="matrix(8.9664,0,0,-8.9664,61.97321,78.69749)" fill="#cc0000"/>
<use xlink:href="#font_1_1c" transform="matrix(8.9664,0,0,-8.9664,66.47434,77.05664)" fill="#cc0000"/>
<use xlink:href="#font_1_69" transform="matrix(8.9664,0,0,-8.9664,70.58992,77.05664)" fill="#cc0000"/>
<use xlink:href="#font_1_3f" transform="matrix(8.9664,0,0,-8.9664,74.472377,76.95801)" fill="#cc0000"/>
<use xlink:href="#font_1_1c" transform="matrix(8.9664,0,0,-8.9664,58.64218,88.01564)" fill="#cc0000"/>
<use xlink:href="#font_1_2b" transform="matrix(8.9664,0,0,-8.9664,62.91019,88.01564)" fill="#cc0000"/>
<use xlink:href="#font_1_69" transform="matrix(8.9664,0,0,-8.9664,66.85541,88.01564)" fill="#cc0000"/>
<use xlink:href="#font_1_42" transform="matrix(8.9664,0,0,-8.9664,70.68406,87.91701)" fill="#cc0000"/>
<use xlink:href="#font_1_51" transform="matrix(8.9664,0,0,-8.9664,72.47733,88.01564)" fill="#cc0000"/>
<use xlink:href="#font_1_4d" transform="matrix(8.9664,0,0,-8.9664,77.54336,87.91701)" fill="#cc0000"/>
<path transform="matrix(1,0,0,-1,46.331,49.147008)" stroke-width=".3985" stroke-linecap="butt" stroke-miterlimit="10" stroke-linejoin="miter" fill="none" stroke="#000000" d="M 169.98973 6.52065 L 169.98973 19.01399 "/>
<path transform="matrix(0,1,1,0,216.32074,42.626359)" stroke-width=".31879" stroke-linecap="round" stroke-linejoin="round" fill="none" stroke="#000000" d="M -1.19551 1.59401 C -1.09587 .99626 0 .09961 .29886 0 C 0 -.09961 -1.09587 -.99626 -1.19551 -1.59401 "/>
<symbol id="font_1_2f">
<path d="M .411 .011000001 L .411 .705 L .331 .705 L .331 .411 C .275 .45800004 .21100001 .46600003 .179 .46600003 C .07800001 .46600003 0 .36100004 0 .23300003 C 0 .104 .07700001 0 .17500001 0 C .20500002 0 .268 .0070000009 .328 .063 L .328 .011000001 L .411 .011000001 M .328 .15200001 C .328 .13300002 .328 .13100001 .317 .117000009 C .29 .081 .256 .065000008 .22000002 .065000008 C .15500002 .065000008 .083000008 .112 .083000008 .23200003 C .083000008 .36 .16800002 .40100003 .23100002 .40100003 C .277 .40100003 .30900003 .37500004 .328 .34900005 L .328 .15200001 Z "/>
</symbol>
<use xlink:href="#font_1_2b" transform="matrix(8.9664,0,0,-8.9664,196.62578,26.246638)" fill="#000099"/>
<use xlink:href="#font_1_51" transform="matrix(8.9664,0,0,-8.9664,200.66965,26.246638)" fill="#000099"/>
<use xlink:href="#font_1_51" transform="matrix(8.9664,0,0,-8.9664,205.53839,26.246638)" fill="#000099"/>
<use xlink:href="#font_1_60" transform="matrix(8.9664,0,0,-8.9664,210.37129,26.148007)" fill="#000099"/>
<use xlink:href="#font_1_2f" transform="matrix(8.9664,0,0,-8.9664,213.09706,26.246638)" fill="#000099"/>
<use xlink:href="#font_1_42" transform="matrix(8.9664,0,0,-8.9664,218.20792,26.148007)" fill="#000099"/>
<use xlink:href="#font_1_4d" transform="matrix(8.9664,0,0,-8.9664,220.45848,26.148007)" fill="#000099"/>
<use xlink:href="#font_1_1c" transform="matrix(8.9664,0,0,-8.9664,224.97756,26.246638)" fill="#000099"/>
<use xlink:href="#font_1_69" transform="matrix(8.9664,0,0,-8.9664,229.09313,26.246638)" fill="#000099"/>
<use xlink:href="#font_1_32" transform="matrix(8.9664,0,0,-8.9664,232.56313,26.246638)" fill="#000099"/>
<path transform="matrix(1,0,0,-1,46.331,49.147008)" stroke-width=".3985" stroke-linecap="butt" stroke-miterlimit="10" stroke-linejoin="miter" fill="none" stroke="#000000" d="M 122.91565 -6.3512 L 122.91565 -18.84454 "/>
<path transform="matrix(0,-1,-1,-0,169.24665,55.498208)" stroke-width=".31879" stroke-linecap="round" stroke-linejoin="round" fill="none" stroke="#000000" d="M -1.19551 1.59401 C -1.09587 .99626 0 .09961 .29886 0 C 0 -.09961 -1.09587 -.99626 -1.19551 -1.59401 "/>
<use xlink:href="#font_1_54" transform="matrix(8.9664,0,0,-8.9664,141.71521,77.701488)" fill="#739900"/>
<use xlink:href="#font_1_1c" transform="matrix(8.9664,0,0,-8.9664,146.21636,76.06064)" fill="#739900"/>
<use xlink:href="#font_1_69" transform="matrix(8.9664,0,0,-8.9664,150.33193,76.06064)" fill="#739900"/>
<use xlink:href="#font_1_3f" transform="matrix(8.9664,0,0,-8.9664,154.21437,75.962009)" fill="#739900"/>
<use xlink:href="#font_1_51" transform="matrix(8.9664,0,0,-8.9664,161.59372,76.06064)" fill="#739900"/>
<use xlink:href="#font_1_54" transform="matrix(8.9664,0,0,-8.9664,166.67768,77.701488)" fill="#739900"/>
<use xlink:href="#font_1_32" transform="matrix(8.9664,0,0,-8.9664,171.26847,76.06064)" fill="#739900"/>
<use xlink:href="#font_1_60" transform="matrix(8.9664,0,0,-8.9664,175.7965,75.962009)" fill="#739900"/>
<use xlink:href="#font_1_1c" transform="matrix(8.9664,0,0,-8.9664,178.68369,76.06064)" fill="#739900"/>
<use xlink:href="#font_1_69" transform="matrix(8.9664,0,0,-8.9664,182.79926,76.06064)" fill="#739900"/>
<use xlink:href="#font_1_42" transform="matrix(8.9664,0,0,-8.9664,186.62792,75.962009)" fill="#739900"/>
<use xlink:href="#font_1_51" transform="matrix(8.9664,0,0,-8.9664,188.42119,76.06064)" fill="#739900"/>
<use xlink:href="#font_1_4d" transform="matrix(8.9664,0,0,-8.9664,193.4872,75.962009)" fill="#739900"/>
<path transform="matrix(1,0,0,-1,46.331,49.147008)" stroke-width=".3985" stroke-linecap="butt" stroke-miterlimit="10" stroke-linejoin="miter" fill="none" stroke="#000000" d="M 70.61111 6.52065 L 70.61111 19.01399 "/>
<path transform="matrix(0,1,1,0,116.94211,42.626359)" stroke-width=".31879" stroke-linecap="round" stroke-linejoin="round" fill="none" stroke="#000000" d="M -1.19551 1.59401 C -1.09587 .99626 0 .09961 .29886 0 C 0 -.09961 -1.09587 -.99626 -1.19551 -1.59401 "/>
<use xlink:href="#font_1_2b" transform="matrix(8.9664,0,0,-8.9664,97.246799,26.246638)" fill="#000099"/>
<use xlink:href="#font_1_51" transform="matrix(8.9664,0,0,-8.9664,101.290637,26.246638)" fill="#000099"/>
<use xlink:href="#font_1_51" transform="matrix(8.9664,0,0,-8.9664,106.15939,26.246638)" fill="#000099"/>
<use xlink:href="#font_1_60" transform="matrix(8.9664,0,0,-8.9664,110.99228,26.148007)" fill="#000099"/>
<use xlink:href="#font_1_2f" transform="matrix(8.9664,0,0,-8.9664,113.71807,26.246638)" fill="#000099"/>
<use xlink:href="#font_1_42" transform="matrix(8.9664,0,0,-8.9664,118.82892,26.148007)" fill="#000099"/>
<use xlink:href="#font_1_4d" transform="matrix(8.9664,0,0,-8.9664,121.07948,26.148007)" fill="#000099"/>
<use xlink:href="#font_1_1c" transform="matrix(8.9664,0,0,-8.9664,125.59855,26.246638)" fill="#000099"/>
<use xlink:href="#font_1_69" transform="matrix(8.9664,0,0,-8.9664,129.71413,26.246638)" fill="#000099"/>
<use xlink:href="#font_1_32" transform="matrix(8.9664,0,0,-8.9664,133.18413,26.246638)" fill="#000099"/>
<path transform="matrix(1,0,0,-1,46.331,49.147008)" stroke-width=".3985" stroke-linecap="butt" stroke-miterlimit="10" stroke-linejoin="miter" fill="none" stroke="#000000" d="M 232.75518 -6.3512 L 232.75518 -18.84454 "/>
<path transform="matrix(0,-1,-1,-0,279.08619,55.498208)" stroke-width=".31879" stroke-linecap="round" stroke-linejoin="round" fill="none" stroke="#000000" d="M -1.19551 1.59401 C -1.09587 .99626 0 .09961 .29886 0 C 0 -.09961 -1.09587 -.99626 -1.19551 -1.59401 "/>
<symbol id="font_1_58">
<path d="M .085999999 0 L .085999999 .086 L 0 .086 L 0 0 L .085999999 0 Z "/>
</symbol>
<use xlink:href="#font_1_54" transform="matrix(8.9664,0,0,-8.9664,259.9342,78.69749)" fill="#800080"/>
<use xlink:href="#font_1_1c" transform="matrix(8.9664,0,0,-8.9664,264.43537,77.05664)" fill="#800080"/>
<use xlink:href="#font_1_69" transform="matrix(8.9664,0,0,-8.9664,268.5509,77.05664)" fill="#800080"/>
<use xlink:href="#font_1_3f" transform="matrix(8.9664,0,0,-8.9664,272.43339,76.95801)" fill="#800080"/>
<use xlink:href="#font_1_51" transform="matrix(8.9664,0,0,-8.9664,279.8127,77.05664)" fill="#800080"/>
<use xlink:href="#font_1_54" transform="matrix(8.9664,0,0,-8.9664,284.89668,78.69749)" fill="#800080"/>
<use xlink:href="#font_1_32" transform="matrix(8.9664,0,0,-8.9664,289.48747,77.05664)" fill="#800080"/>
<use xlink:href="#font_1_60" transform="matrix(8.9664,0,0,-8.9664,294.0155,76.95801)" fill="#800080"/>
<use xlink:href="#font_1_58" transform="matrix(8.9664,0,0,-8.9664,297.30616,76.95801)" fill="#800080"/>
<use xlink:href="#font_1_51" transform="matrix(8.9664,0,0,-8.9664,267.224,88.01564)" fill="#800080"/>
<use xlink:href="#font_1_54" transform="matrix(8.9664,0,0,-8.9664,272.30796,89.65649)" fill="#800080"/>
<use xlink:href="#font_1_69" transform="matrix(8.9664,0,0,-8.9664,276.49525,88.01564)" fill="#800080"/>
<use xlink:href="#font_1_42" transform="matrix(8.9664,0,0,-8.9664,280.3239,87.91701)" fill="#800080"/>
<use xlink:href="#font_1_51" transform="matrix(8.9664,0,0,-8.9664,282.1172,88.01564)" fill="#800080"/>
<use xlink:href="#font_1_4d" transform="matrix(8.9664,0,0,-8.9664,287.18324,87.91701)" fill="#800080"/>
<path transform="matrix(1,0,0,-1,46.331,49.147008)" stroke-width=".3985" stroke-linecap="butt" stroke-miterlimit="10" stroke-linejoin="miter" fill="none" stroke="#000000" d="M 308.59678 6.52065 L 308.59678 19.01399 "/>
<path transform="matrix(0,1,1,0,354.92778,42.626359)" stroke-width=".31879" stroke-linecap="round" stroke-linejoin="round" fill="none" stroke="#000000" d="M -1.19551 1.59401 C -1.09587 .99626 0 .09961 .29886 0 C 0 -.09961 -1.09587 -.99626 -1.19551 -1.59401 "/>
<use xlink:href="#font_1_54" transform="matrix(8.9664,0,0,-8.9664,320.1152,27.887488)" fill="#800080"/>
<use xlink:href="#font_1_1c" transform="matrix(8.9664,0,0,-8.9664,324.61637,26.246638)" fill="#800080"/>
<use xlink:href="#font_1_69" transform="matrix(8.9664,0,0,-8.9664,328.7319,26.246638)" fill="#800080"/>
<use xlink:href="#font_1_3f" transform="matrix(8.9664,0,0,-8.9664,332.61439,26.148007)" fill="#800080"/>
<use xlink:href="#font_1_1c" transform="matrix(8.9664,0,0,-8.9664,340.20893,26.246638)" fill="#800080"/>
<use xlink:href="#font_1_2b" transform="matrix(8.9664,0,0,-8.9664,344.47694,26.246638)" fill="#800080"/>
<use xlink:href="#font_1_69" transform="matrix(8.9664,0,0,-8.9664,348.42213,26.246638)" fill="#800080"/>
<use xlink:href="#font_1_42" transform="matrix(8.9664,0,0,-8.9664,352.2508,26.148007)" fill="#800080"/>
<use xlink:href="#font_1_51" transform="matrix(8.9664,0,0,-8.9664,354.04408,26.246638)" fill="#800080"/>
<use xlink:href="#font_1_4d" transform="matrix(8.9664,0,0,-8.9664,359.1101,26.148007)" fill="#800080"/>
<use xlink:href="#font_1_51" transform="matrix(8.9664,0,0,-8.9664,366.48945,26.246638)" fill="#800080"/>
<use xlink:href="#font_1_54" transform="matrix(8.9664,0,0,-8.9664,371.57337,27.887488)" fill="#800080"/>
<use xlink:href="#font_1_69" transform="matrix(8.9664,0,0,-8.9664,375.76069,26.246638)" fill="#800080"/>
<use xlink:href="#font_1_42" transform="matrix(8.9664,0,0,-8.9664,379.58937,26.148007)" fill="#800080"/>
<use xlink:href="#font_1_51" transform="matrix(8.9664,0,0,-8.9664,381.38264,26.246638)" fill="#800080"/>
<use xlink:href="#font_1_4d" transform="matrix(8.9664,0,0,-8.9664,386.44868,26.148007)" fill="#800080"/>
<path transform="matrix(1,0,0,-1,46.331,49.147008)" stroke-width=".3985" stroke-linecap="butt" stroke-miterlimit="10" stroke-linejoin="miter" fill="none" stroke="#cbcbcb" d="M 39.2284 -5.89291 L 39.2284 -46.74033 "/>
<path transform="matrix(1,0,0,-1,46.331,49.147008)" stroke-width=".3985" stroke-linecap="butt" stroke-miterlimit="10" stroke-linejoin="miter" fill="none" stroke="#cbcbcb" d="M 258.90745 -5.89291 L 258.90745 -46.74033 "/>
<path transform="matrix(1,0,0,-1,46.331,49.147008)" stroke-width=".3985" stroke-linecap="butt" stroke-miterlimit="10" stroke-linejoin="miter" fill="none" stroke="#cbcbcb" d="M 39.2284 -46.74033 C 39.60199 -47.48753 40.47374 -47.98567 41.71909 -47.98567 L 146.57723 -47.98567 C 147.82257 -47.98567 148.69432 -48.4838 149.06792 -49.23102 C 149.44152 -48.4838 150.31327 -47.98567 151.55861 -47.98567 L 256.41676 -47.98567 C 257.6621 -47.98567 258.53385 -47.48753 258.90745 -46.74033 "/>
<symbol id="font_1_62">
<path d="M .341 .14000002 C .341 .17500001 .327 .21000003 .292 .24000003 C .258 .26900003 .228 .275 .16600001 .28700004 C .13000001 .29400004 .080000009 .30300004 .080000009 .35000003 C .080000009 .40900005 .15100001 .40900005 .16600001 .40900005 C .23900001 .40900005 .282 .38600005 .311 .37000004 L .324 .44000004 C .262 .46800003 .216 .47200004 .17500001 .47200004 C .15200001 .47200004 .005000001 .47200004 .005000001 .34000004 C .005000001 .29200004 .034 .26200003 .045 .25100003 C .083000008 .21800003 .10900001 .21300002 .17700002 .20000002 C .209 .19400002 .266 .18300002 .266 .13200002 C .266 .067 .18500002 .067 .172 .067 C .113000009 .067 .056 .087000008 .013000002 .117000009 L 0 .044 C .060000004 .012000001 .12100001 0 .172 0 C .237 0 .341 .021000002 .341 .14000002 Z "/>
</symbol>
<symbol id="font_1_7d">
<path d="M .44200004 .609 L .44200004 .69500008 L .356 .69500008 L .356 .609 L .44200004 .609 M .439 0 L .439 .44400005 L .35900004 .44400005 L .35900004 0 L .439 0 M .275 .38200004 L .275 .44400005 L .15200001 .44400005 L .15200001 .56200006 C .15200001 .62600007 .18900001 .64000007 .21300002 .64000007 C .231 .64000007 .254 .63600006 .275 .62100008 L .275 .694 C .26700003 .697 .24200002 .70500007 .21300002 .70500007 C .13700001 .70500007 .075 .634 .075 .53300008 L .075 .44400005 L 0 .44400005 L 0 .38200004 L .075 .38200004 L .075 0 L .15500002 0 L .15500002 .38200004 L .275 .38200004 Z "/>
</symbol>
<use xlink:href="#font_1_54" transform="matrix(8.9664,0,0,-8.9664,162.31221,109.92548)"/>
<use xlink:href="#font_1_1c" transform="matrix(8.9664,0,0,-8.9664,166.81336,108.28464)"/>
<use xlink:href="#font_1_69" transform="matrix(8.9664,0,0,-8.9664,170.92893,108.28464)"/>
<use xlink:href="#font_1_3f" transform="matrix(8.9664,0,0,-8.9664,174.81137,108.186008)"/>
<use xlink:href="#font_1_62" transform="matrix(8.9664,0,0,-8.9664,182.18175,108.28464)"/>
<use xlink:href="#font_1_54" transform="matrix(8.9664,0,0,-8.9664,186.1987,109.92548)"/>
<use xlink:href="#font_1_32" transform="matrix(8.9664,0,0,-8.9664,190.7895,108.28464)"/>
<use xlink:href="#font_1_2b" transform="matrix(8.9664,0,0,-8.9664,194.8961,108.28464)"/>
<use xlink:href="#font_1_42" transform="matrix(8.9664,0,0,-8.9664,199.34345,108.186008)"/>
<use xlink:href="#font_1_7d" transform="matrix(8.9664,0,0,-8.9664,201.11879,108.186008)"/>
<use xlink:href="#font_1_2b" transform="matrix(8.9664,0,0,-8.9664,206.131,108.28464)"/>
<use xlink:href="#font_1_1c" transform="matrix(8.9664,0,0,-8.9664,210.39005,108.28464)"/>
<use xlink:href="#font_1_69" transform="matrix(8.9664,0,0,-8.9664,214.50563,108.28464)"/>
<use xlink:href="#font_1_42" transform="matrix(8.9664,0,0,-8.9664,218.33429,108.186008)"/>
<use xlink:href="#font_1_51" transform="matrix(8.9664,0,0,-8.9664,220.12757,108.28464)"/>
<use xlink:href="#font_1_4d" transform="matrix(8.9664,0,0,-8.9664,225.19358,108.186008)"/>
</g>
</svg>
